<?xml version="1.0" encoding="UTF-8"?>
<!DOCTYPE svg PUBLIC "-//W3C//DTD SVG 1.1//EN" "http://www.w3.org/Graphics/SVG/1.1/DTD/svg11.dtd">
<!-- Creator: CorelDRAW 2018 (64-Bit) -->
<svg xmlns="http://www.w3.org/2000/svg" xml:space="preserve" width="83px" height="18px" version="1.1" style="shape-rendering:geometricPrecision; text-rendering:geometricPrecision; image-rendering:optimizeQuality; fill-rule:evenodd; clip-rule:evenodd"
viewBox="0 0 83 17.79"
 xmlns:xlink="http://www.w3.org/1999/xlink">
 <defs>
  <style type="text/css">
   <![CDATA[
    .fil0 {fill:#36B81C;fill-rule:nonzero}
    .fil1 {fill:#72707D;fill-rule:nonzero}
   ]]>
  </style>
 </defs>
 <g id="Layer_x0020_1">
  <metadata id="CorelCorpID_0Corel-Layer"/>
  <g id="_4107608128">
   <g>
    <path class="fil0" d="M6.66 1c1.03,-0.31 2.12,-0.16 3.17,-0.18 2.12,0.24 4.11,1.4 5.4,3.09 1.93,2.43 2.32,6.03 0.79,8.75 -1.53,2.8 -4.76,4.56 -7.94,4.3 -1.31,0 -2.58,-0.44 -3.71,-1.08 -0.34,-0.2 -0.73,0 -1.08,0.1 -0.72,0.21 -1.43,0.5 -2.17,0.67 0.27,-0.89 0.58,-1.76 0.86,-2.64 0.08,-0.16 -0.07,-0.3 -0.14,-0.43 -1.05,-1.59 -1.52,-3.55 -1.27,-5.44 0.36,-3.3 2.84,-6.34 6.09,-7.14zm-1.98 3.38l0 0c-0.62,0.45 -0.85,1.26 -0.94,1.99 -0.12,1.1 0.4,2.13 1,3.01 0.94,1.36 2.17,2.53 3.56,3.43 0.96,0.58 2.03,1.11 3.18,1.07 0.82,-0.02 1.7,-0.38 2.12,-1.13 0.24,-0.38 0.31,-0.86 0.23,-1.31 -0.63,-0.45 -1.33,-0.8 -2.04,-1.11 -0.21,-0.08 -0.47,-0.25 -0.65,-0.03 -0.4,0.4 -0.74,0.85 -1.19,1.19 -1.54,-0.71 -2.97,-1.84 -3.62,-3.44 0.49,-0.32 0.84,-0.87 0.78,-1.47 -0.09,-0.86 -0.41,-1.69 -0.87,-2.42 -0.52,-0.11 -1.12,-0.12 -1.56,0.22z"/>
   </g>
  </g>
  <g id="_4107623328">
   <path class="fil1" d="M21.34 5.26c0.6,-0.03 1.21,-0.04 1.82,0 0.13,0.08 0.1,0.27 0.15,0.4 0.39,1.92 0.84,3.83 1.24,5.74 0.47,-1.4 0.76,-2.85 1.17,-4.27 0.2,-0.62 0.29,-1.29 0.54,-1.88 0.71,-0.03 1.43,-0.01 2.14,0.01 0.44,1.71 0.88,3.44 1.31,5.16 0.08,0.37 0.17,0.74 0.3,1.09 0.44,-2.1 0.91,-4.18 1.37,-6.27 0.6,0 1.21,0 1.81,0 -0.37,1.79 -0.86,3.54 -1.25,5.32 -0.32,1.22 -0.59,2.46 -0.91,3.68 -0.64,0.08 -1.29,0.03 -1.94,0.03 -0.18,-0.39 -0.22,-0.83 -0.34,-1.23 -0.51,-1.82 -0.96,-3.65 -1.47,-5.47 -0.63,2.2 -1.17,4.42 -1.77,6.62l-0.06 0.07c-0.64,0.04 -1.29,0.02 -1.94,0.01 -0.76,-3 -1.44,-6.01 -2.17,-9.01z"/>
   <path class="fil1" d="M34 5.24c0.58,0 1.16,-0.01 1.74,0 0.01,1.09 -0.02,2.19 0.02,3.28 0.43,-0.37 0.88,-0.8 1.47,-0.89 0.77,-0.12 1.67,0.02 2.22,0.62 0.43,0.47 0.51,1.12 0.53,1.73 0.02,1.43 -0.01,2.85 0.02,4.28 -0.59,0.03 -1.18,0.01 -1.76,0.02 0,-1.37 0,-2.73 0,-4.09 -0.02,-0.34 -0.04,-0.72 -0.28,-0.99 -0.56,-0.5 -1.54,-0.33 -1.93,0.29 -0.24,0.41 -0.28,0.89 -0.29,1.36 0.01,1.14 0,2.28 0.01,3.42 -0.59,0.01 -1.18,0.01 -1.76,0 0.01,-3.01 -0.01,-6.02 0.01,-9.03z"/>
   <g>
    <path class="fil1" d="M62.15 5.28c0.64,-0.09 1.3,-0.03 1.94,-0.04 0.96,2.43 1.94,4.86 2.91,7.28 0.22,0.59 0.5,1.15 0.67,1.75 -0.64,0 -1.29,0.02 -1.93,0 -0.36,-0.65 -0.5,-1.39 -0.85,-2.05 -1.18,0.01 -2.37,0.01 -3.56,0 -0.31,0.65 -0.45,1.36 -0.76,2.01 -0.63,0.1 -1.28,0.03 -1.91,0.04 0.17,-0.6 0.44,-1.16 0.66,-1.74 0.82,-2.16 1.67,-4.31 2.5,-6.46 0.1,-0.27 0.19,-0.54 0.33,-0.79zm-0.26 5.42l0 0c0.81,0.01 1.62,0.02 2.42,0.01 -0.37,-1.11 -0.77,-2.22 -1.21,-3.3 -0.45,1.08 -0.84,2.18 -1.21,3.29z"/>
   </g>
   <path class="fil1" d="M48.62 6.42c0.57,-0.33 1.13,-0.68 1.73,-0.98 0.03,0.75 0.01,1.5 0,2.25 0.39,0.04 0.78,0.03 1.17,0.02 0.04,0.47 0.03,0.95 0.03,1.42 -0.4,0 -0.8,0 -1.2,0 0.04,1.21 -0.03,2.41 0.03,3.61 0.24,0.43 0.78,0.21 1.15,0.15 0.06,0.45 0.13,0.89 0.13,1.35 -0.77,0.2 -1.66,0.37 -2.4,-0.05 -0.49,-0.26 -0.61,-0.87 -0.65,-1.38 -0.02,-1.23 0.03,-2.46 -0.02,-3.68 -0.26,0 -0.52,0 -0.77,-0.01 0,-0.47 0,-0.94 0,-1.4 0.26,0 0.52,0 0.78,-0.01 0.01,-0.43 0.01,-0.86 0.02,-1.29z"/>
   <g>
    <path class="fil1" d="M42.39 7.96c0.71,-0.4 1.56,-0.4 2.35,-0.35 0.62,0.02 1.27,0.19 1.73,0.62 0.38,0.36 0.44,0.92 0.47,1.41 0,1.02 0.01,2.05 0,3.07 -0.02,0.54 0.16,1.05 0.33,1.56 -0.56,0.02 -1.11,0 -1.67,0 -0.08,-0.22 -0.16,-0.44 -0.23,-0.66 -0.59,0.54 -1.37,0.89 -2.17,0.83 -0.79,0.03 -1.57,-0.43 -1.89,-1.15 -0.35,-0.83 -0.07,-1.92 0.74,-2.38 0.94,-0.47 2.03,-0.49 3.02,-0.83 0.28,-0.08 0.14,-0.44 0.12,-0.64 -0.19,-0.56 -0.88,-0.55 -1.36,-0.51 -0.47,0.01 -0.75,0.42 -0.95,0.79 -0.52,-0.07 -1.02,-0.18 -1.54,-0.27 0.17,-0.59 0.49,-1.18 1.05,-1.49zm1.11 3.64l0 0c-0.37,0.11 -0.68,0.48 -0.61,0.88 0.1,0.54 0.72,0.86 1.23,0.72 0.44,-0.1 0.91,-0.37 1.05,-0.83 0.1,-0.39 0.05,-0.79 0.06,-1.19 -0.58,0.12 -1.17,0.23 -1.73,0.42z"/>
   </g>
   <path class="fil1" d="M52.58 8.53c0.49,-0.71 1.4,-0.92 2.21,-0.94 0.84,-0.03 1.77,0.04 2.45,0.6 0.34,0.28 0.53,0.7 0.65,1.12 -0.53,0.1 -1.05,0.24 -1.59,0.3 -0.17,-0.34 -0.43,-0.69 -0.84,-0.75 -0.46,-0.06 -0.96,-0.05 -1.38,0.15 -0.31,0.16 -0.26,0.66 0.08,0.75 1.12,0.44 2.4,0.46 3.4,1.17 0.38,0.32 0.59,0.84 0.57,1.34 0.02,0.83 -0.6,1.57 -1.33,1.89 -0.73,0.35 -1.55,0.27 -2.34,0.25 -1.08,-0.09 -2.24,-0.84 -2.4,-1.99 0.54,-0.08 1.08,-0.18 1.62,-0.25 0.18,0.29 0.28,0.66 0.61,0.83 0.44,0.24 0.98,0.23 1.46,0.13 0.31,-0.05 0.68,-0.28 0.63,-0.64 0.05,-0.31 -0.27,-0.45 -0.52,-0.52 -0.97,-0.27 -2.02,-0.38 -2.89,-0.94 -0.8,-0.52 -0.96,-1.75 -0.39,-2.5z"/>
   <g>
    <path class="fil1" d="M71.58 7.64c0.58,-0.09 1.21,-0.07 1.73,0.22 0.82,0.44 1.38,1.3 1.51,2.21 0.13,0.99 0.11,2.05 -0.37,2.94 -0.47,0.89 -1.46,1.54 -2.48,1.42 -0.7,0.02 -1.24,-0.47 -1.75,-0.88 -0.04,1.08 -0.02,2.15 -0.02,3.23 -0.56,0.03 -1.13,0.05 -1.7,0 0.03,-3.02 0.01,-6.04 0.01,-9.07 0.53,0.01 1.05,0.01 1.58,0 0,0.3 0.01,0.59 0.03,0.88 0.43,-0.4 0.87,-0.83 1.46,-0.95zm-0.43 1.42l0 0c-0.73,0.3 -0.98,1.18 -0.95,1.9 0.04,0.7 0.16,1.54 0.83,1.93 0.64,0.4 1.57,0.13 1.87,-0.58 0.29,-0.8 0.33,-1.72 0.02,-2.51 -0.27,-0.67 -1.11,-1.07 -1.77,-0.74z"/>
   </g>
   <g>
    <path class="fil1" d="M77.72 8.65c0.45,-0.6 1.14,-1.04 1.91,-1.06 1.11,-0.11 2.14,0.68 2.56,1.68 0.35,0.86 0.36,1.82 0.22,2.72 -0.17,0.98 -0.81,1.91 -1.74,2.29 -0.43,0.19 -0.91,0.17 -1.36,0.13 -0.61,-0.08 -1.07,-0.53 -1.5,-0.92 0.02,1.1 0.01,2.2 0,3.31 -0.56,0 -1.13,0.01 -1.69,0 -0.01,-3.03 0,-6.05 -0.01,-9.07 0.54,-0.02 1.07,-0.01 1.61,0 0,0.31 0.01,0.61 0,0.92zm1.08 0.39l0 0c-0.65,0.23 -0.96,0.94 -0.98,1.59 -0.03,0.7 0.01,1.51 0.54,2.04 0.47,0.5 1.35,0.56 1.83,0.05 0.47,-0.45 0.55,-1.15 0.56,-1.77 -0.04,-0.48 -0.1,-0.99 -0.36,-1.42 -0.35,-0.47 -1.03,-0.74 -1.59,-0.49z"/>
   </g>
  </g>
 </g>
</svg>
