<svg id="btn-sso" xmlns="http://www.w3.org/2000/svg" xmlns:xlink="http://www.w3.org/1999/xlink" width="155" height="40" viewBox="0 0 155 40">
  <defs>
    <clipPath id="clip-path">
      <rect id="Rectangle" width="60" height="40" rx="3" fill="#005abc"/>
    </clipPath>
  </defs>
  <g id="Group_13_Copy" data-name="Group 13 Copy">
    <g id="Group_11" data-name="Group 11">
      <g id="Shadow">
        <g id="Group_9" data-name="Group 9">
          <g id="Group_5_Copy" data-name="Group 5 Copy">
            <rect id="Rectangle-2" data-name="Rectangle" width="155" height="40" rx="3" fill="#005abc"/>
            <g id="Group_5_Copy-2" data-name="Group 5 Copy" clip-path="url(#clip-path)">
              <ellipse id="Oval" cx="30.097" cy="30.38" rx="30.097" ry="30.38" transform="translate(-11.537 -10.633)" fill="#f2f2f2"/>
            </g>
          </g>
        </g>
      </g>
    </g>
    <g id="Group_12" data-name="Group 12" transform="translate(8.528 5.063)">
      <path id="Fill-1" d="M13.029,29.684l-.05,0a14.633,14.633,0,0,1-7.124-2.9.426.426,0,0,1-.081-.592.415.415,0,0,1,.586-.082,13.789,13.789,0,0,0,6.718,2.738.423.423,0,0,1-.049.842Zm5.832-.508a.415.415,0,0,1-.4-.3.421.421,0,0,1,.031-.322.416.416,0,0,1,.248-.2c.176-.054.328-.1.465-.151a.411.411,0,0,1,.135-.022.418.418,0,0,1,.4.288.423.423,0,0,1-.262.536c-.152.052-.313.1-.493.159A.436.436,0,0,1,18.861,29.176ZM21.641,28a.417.417,0,0,1-.366-.218.428.428,0,0,1,.164-.575,14.036,14.036,0,0,0,6.288-7.3.416.416,0,0,1,.39-.272.406.406,0,0,1,.15.028.424.424,0,0,1,.241.545,14.886,14.886,0,0,1-6.665,7.737A.413.413,0,0,1,21.641,28Zm-7.927-.319a.229.229,0,0,1-.035,0l-.068-.006H13.6l-.042,0-.059-.005a.422.422,0,0,1-.376-.462.427.427,0,0,1,.175-.3V20.711a.419.419,0,1,1,.837,0v6.543a.428.428,0,0,1-.135.311A.418.418,0,0,1,13.714,27.677Zm2.046-.25A.421.421,0,0,1,15.341,27V26.5a.419.419,0,1,1,.837,0V27A.421.421,0,0,1,15.76,27.427Zm3.783-.7a.417.417,0,0,1-.384-.257.425.425,0,0,1,.22-.555,11.859,11.859,0,0,0,5.446-4.729.413.413,0,0,1,.356-.2.437.437,0,0,1,.22.064.426.426,0,0,1,.136.582,12.707,12.707,0,0,1-5.83,5.063A.387.387,0,0,1,19.543,26.727Zm-9.878-.114a.418.418,0,0,1-.173-.038,12.706,12.706,0,0,1-5.709-5.2.426.426,0,0,1,.148-.579.416.416,0,0,1,.211-.058.42.42,0,0,1,.361.208,11.878,11.878,0,0,0,5.333,4.859.425.425,0,0,1,.208.56A.419.419,0,0,1,9.665,26.613Zm6.095-2.24a.421.421,0,0,1-.418-.422v-.858a.423.423,0,0,1,.366-.419,7.743,7.743,0,0,0,4.709-2.442l.042-.047a8.044,8.044,0,0,0,.917-1.238c.038-.062.07-.113.1-.167.061-.109.119-.218.176-.331.038-.076.077-.16.129-.272l.011-.023.027-.058.015-.035,0-.011c.027-.058.059-.127.086-.2.058-.141.122-.313.188-.51a.417.417,0,0,1,.4-.291.376.376,0,0,1,.133.022.424.424,0,0,1,.265.534c-.053.165-.123.355-.208.565-.022.055-.048.115-.09.208l-.012.027-.018.04-.026.058c-.061.136-.111.24-.156.328-.068.134-.132.254-.2.367-.038.066-.076.13-.115.193a9.16,9.16,0,0,1-1.012,1.363l-.046.051a8.6,8.6,0,0,1-4.851,2.651v.492A.421.421,0,0,1,15.76,24.373ZM3.274,23.989a.415.415,0,0,1-.335-.168A14.865,14.865,0,0,1,0,14.9c0-.316.009-.619.027-.9a.416.416,0,0,1,.411-.4H.469a.421.421,0,0,1,.392.446c-.017.243-.025.529-.025.851a14.021,14.021,0,0,0,2.772,8.418.425.425,0,0,1-.084.591A.413.413,0,0,1,3.274,23.989ZM9.782,21.6a1.364,1.364,0,0,1-.95-.4,8.7,8.7,0,0,1-.86-.951.426.426,0,0,1,.069-.594.414.414,0,0,1,.588.071,7.6,7.6,0,0,0,.778.859.537.537,0,0,0,.375.164.676.676,0,0,0,.638-.627.542.542,0,0,0-.139-.348c-.074-.09-.149-.174-.22-.247A6.636,6.636,0,0,1,8.47,16.835a.424.424,0,0,1,.277-.528.445.445,0,0,1,.122-.018.416.416,0,0,1,.4.3,5.8,5.8,0,0,0,1.388,2.348c.086.088.174.186.267.3a1.389,1.389,0,0,1,.332.889A1.512,1.512,0,0,1,9.782,21.6Zm5.977-.171a.42.42,0,0,1-.412-.353.424.424,0,0,1,.344-.487,5.647,5.647,0,0,0,3.094-1.611l.013-.014c.018-.021.036-.043.056-.063a5.974,5.974,0,0,0,.39-.455l.036-.048c.089-.116.189-.261.3-.432l.065-.108c.069-.115.141-.248.219-.405.025-.05.049-.1.073-.152.058-.133.107-.254.159-.393l.019-.051c.019-.045.033-.085.048-.131.047-.14.086-.288.11-.387l0-.007.021-.078.009-.034c.008-.03.016-.059.023-.089.017-.077.031-.157.043-.239a.418.418,0,0,1,.413-.356.406.406,0,0,1,.066.005.423.423,0,0,1,.347.484c-.016.094-.033.188-.052.286l0,.008-.005.024-.006.024c-.006.027-.014.057-.024.094l0,.014-.017.066c-.036.142-.076.294-.129.454-.009.027-.019.054-.029.081l-.011.031-.019.051-.018.048c-.05.136-.11.283-.184.451-.017.037-.034.074-.052.111l-.018.039-.013.025c-.1.194-.179.346-.251.464-.023.041-.049.083-.075.124-.1.162-.214.328-.341.5l-.04.053a6.8,6.8,0,0,1-.447.522l-.022.026-.015.017-.031.034a6.5,6.5,0,0,1-3.558,1.858A.463.463,0,0,1,15.759,21.427ZM26.7,18.083a.421.421,0,0,1-.409-.517,12.262,12.262,0,0,0,.3-2.671,13.326,13.326,0,0,0-.093-1.521,11.948,11.948,0,0,0-1.944-5.2.425.425,0,0,1,.111-.587.4.4,0,0,1,.235-.074.415.415,0,0,1,.346.185,12.791,12.791,0,0,1,2.083,5.572,13.5,13.5,0,0,1,.1,1.624,12.8,12.8,0,0,1-.317,2.859A.419.419,0,0,1,26.7,18.083ZM2.55,16.8a.42.42,0,0,1-.415-.373c-.02-.142-.038-.319-.051-.525a.421.421,0,0,1,.385-.454H2.5a.422.422,0,0,1,.415.391c.017.2.031.346.048.489a.422.422,0,0,1-.365.47A.21.21,0,0,1,2.55,16.8Zm4.126-.062a.419.419,0,0,1-.412-.351,8.625,8.625,0,0,1-.126-1.489c0-.265.011-.521.032-.762a8.707,8.707,0,0,1,4.361-6.808.416.416,0,0,1,.571.159.427.427,0,0,1-.158.576A7.857,7.857,0,0,0,7,14.2c-.019.258-.029.49-.029.69a7.57,7.57,0,0,0,.113,1.345.422.422,0,0,1-.341.489A.242.242,0,0,1,6.675,16.734Zm22.332-.212a.229.229,0,0,1-.035,0,.421.421,0,0,1-.383-.455c.032-.4.048-.8.048-1.169A13.963,13.963,0,0,0,27.293,8.86a.424.424,0,0,1,.2-.563.341.341,0,0,1,.18-.041.421.421,0,0,1,.378.24,14.9,14.9,0,0,1,1.426,6.4c0,.384-.017.8-.05,1.238A.423.423,0,0,1,29.007,16.521ZM22.79,13.879a.422.422,0,0,1-.413-.359c-.014-.1-.026-.168-.04-.234-.01-.047-.022-.1-.04-.156l-.016-.061-.016-.061-.014-.061c-.035-.147-.07-.29-.113-.427-.011-.033-.023-.066-.035-.1l-.006-.017-.013-.038-.012-.031-.008-.022-.023-.06-.014-.04-.014-.037L22,12.14l-.005-.016,0-.005,0-.014-.005-.014-.009-.023-.005-.014,0-.013c-.036-.1-.068-.185-.1-.255-.017-.039-.036-.079-.057-.121l-.012-.024-.014-.027-.013-.026-.025-.053L21.73,11.5c-.06-.128-.13-.277-.206-.416-.023-.041-.048-.082-.084-.14l-.058-.094-.007-.012c-.085-.149-.169-.283-.257-.412-.042-.06-.065-.091-.089-.12L21.02,10.3l-.063-.085c-.137-.184-.228-.3-.3-.394-.045-.052-.081-.093-.119-.132l-.062-.068c-.107-.118-.221-.244-.339-.359-.022-.022-.043-.041-.064-.06l-.026-.024-.025-.023L20,9.134l-.066-.06c-.114-.106-.23-.207-.367-.319-.064-.053-.133-.1-.154-.117l-.013-.01-.061-.046-.014-.011c-.076-.057-.225-.166-.374-.265-.048-.031-.106-.067-.19-.117l-.023-.013-.005,0-.034-.021-.011-.006-.012-.007-.027-.016-.016-.01c-.1-.059-.21-.121-.337-.189l-.024-.013a.425.425,0,0,1-.182-.569.416.416,0,0,1,.373-.23.387.387,0,0,1,.191.047l.029.014c.15.078.291.158.444.252l.033.02.018.011.033.02.053.033c.048.029.1.058.143.089.14.091.277.188.431.3l.058.044.042.032.022.016c.039.029.084.063.13.1.114.09.219.184.311.266l.013.011.014.013.018.016.017.015.006.006.027.024.061.056c.056.05.11.1.164.151.113.112.21.217.282.3l.02.021.03.032.013.013.013.014.015.017,0,0,.057.062,0,.005.024.027.026.029c.033.035.062.067.088.1.107.126.2.255.293.375l.031.041.013.019.057.076.019.025.007.01.01.013.02.027.011.014,0,0a.663.663,0,0,1,.05.07c.1.147.195.3.293.469l.05.082.013.02.014.023c.027.044.053.088.078.133.1.183.185.368.222.447l.008.016.059.124c.029.058.059.12.087.186.046.109.091.227.147.382l.005.016.012.031,0,.014.007.021.005.014.014.039c.012.032.023.065.036.1l.01.027.014.036.007.021c.015.041.029.078.041.116.046.145.082.289.118.436l0,.019.006.026.014.059q.012.051.027.1l0,.012c.025.094.038.148.048.194.018.087.034.178.049.28a.423.423,0,0,1-.35.481A.39.39,0,0,1,22.79,13.879ZM2.561,13.75l-.053,0a.423.423,0,0,1-.363-.472,12.887,12.887,0,0,1,5.177-8.79.415.415,0,0,1,.584.1.427.427,0,0,1-.094.59,12.042,12.042,0,0,0-4.837,8.21A.42.42,0,0,1,2.561,13.75Zm17.6-1.321a.417.417,0,0,1-.37-.224c-.026-.052-.058-.109-.1-.181-.024-.045-.048-.084-.079-.134l-.012-.02-.013-.02-.018-.029c-.035-.059-.07-.111-.106-.164l-.008-.013-.02-.03-.016-.024,0,0-.012-.017c-.014-.022-.03-.042-.046-.064l-.007-.01-.008-.01-.036-.049a5.565,5.565,0,0,0-1.16-1.17l-.065-.049-.065-.049c-.076-.055-.148-.1-.257-.17l-.031-.019-.018-.012-.021-.014c-.036-.023-.078-.049-.122-.073l-.014-.008-.01-.005-.012-.007-.026-.014-.005,0c-.048-.027-.1-.056-.161-.087s-.16-.08-.265-.129l-.046-.021L17,9.593c-.038-.018-.073-.034-.108-.049-.147-.057-.267-.1-.374-.138l-.054-.019-.052-.018a5.3,5.3,0,0,0-1.061-.22c-.1-.013-.2-.018-.3-.022h-.138l-.029,0-.038,0c-.031,0-.068-.005-.1-.005a5.687,5.687,0,0,0-3.023.868.507.507,0,0,1-.221.064.416.416,0,0,1-.355-.2.429.429,0,0,1,.134-.582,6.413,6.413,0,0,1,3.458-1c.035,0,.068,0,.1,0h.027l.031,0h.017l.055,0h.115c.115.005.234.011.358.027a6.01,6.01,0,0,1,1.217.252l.088.03.037.013c.109.037.245.087.427.158.053.023.105.046.154.068l.048.022c.1.045.2.091.316.153.1.055.185.1.26.143.055.031.112.066.172.105l.019.012.029.018c.1.065.2.127.294.194l.022.016.022.016.044.033.052.04a6.405,6.405,0,0,1,1.336,1.346l.032.042c.027.036.054.072.079.109.057.08.115.168.189.288l.014.023c.046.075.088.145.125.209s.074.133.113.207a.426.426,0,0,1-.174.571A.415.415,0,0,1,20.163,12.429Zm-10.742-.21a.348.348,0,0,1-.21-.056.428.428,0,0,1-.152-.579c.138-.232.213-.352.288-.458a.419.419,0,0,1,.344-.182.41.41,0,0,1,.238.076.424.424,0,0,1,.105.588c-.1.147-.182.278-.25.4A.42.42,0,0,1,9.421,12.219ZM.813,11.93a.3.3,0,0,1-.1-.012.424.424,0,0,1-.308-.51c.033-.141.072-.293.131-.509a.421.421,0,0,1,.4-.309.507.507,0,0,1,.113.015.424.424,0,0,1,.29.521c-.035.129-.077.29-.123.479A.417.417,0,0,1,.813,11.93ZM13.082,7.219A.423.423,0,0,1,13,6.382c.132-.028.3-.058.522-.092.027,0,.047,0,.06,0a.423.423,0,0,1,.058.841c-.169.025-.327.053-.469.084A.261.261,0,0,1,13.082,7.219Zm-9.962-.34a.415.415,0,0,1-.245-.08.427.427,0,0,1-.095-.59A14.957,14.957,0,0,1,8.732,1.3.407.407,0,0,1,8.9,1.26a.419.419,0,0,1,.382.25.424.424,0,0,1-.21.559A13.98,13.98,0,0,0,3.459,6.7.418.418,0,0,1,3.119,6.879Zm20.164-.463a.411.411,0,0,1-.291-.12c-.108-.106-.211-.2-.356-.335a.426.426,0,0,1-.033-.6.415.415,0,0,1,.591-.033l.012.011c.137.127.256.236.369.347a.426.426,0,0,1,.009.6A.418.418,0,0,1,23.283,6.416ZM24.76,4.982a.414.414,0,0,1-.292-.121c-.155-.155-.261-.256-.355-.339a.428.428,0,0,1-.027-.6.419.419,0,0,1,.31-.138.413.413,0,0,1,.282.111c.123.112.246.23.377.36a.426.426,0,0,1,.005.6A.412.412,0,0,1,24.76,4.982ZM18.591,3.533a.415.415,0,0,1-.131-.022A11.543,11.543,0,0,0,16.1,2.989a11.144,11.144,0,0,0-1.354-.076,11.526,11.526,0,0,0-3.461.518.327.327,0,0,1-.121.018.423.423,0,0,1-.122-.827,12.371,12.371,0,0,1,3.7-.554c.4,0,.887.028,1.447.082a11.819,11.819,0,0,1,2.534.56.423.423,0,0,1,.265.534A.418.418,0,0,1,18.591,3.533ZM22.4,3.089a.42.42,0,0,1-.224-.066A13.743,13.743,0,0,0,14.737.845c-.336,0-.642.01-.91.03-.468.036-.78.067-1.01.1a.274.274,0,0,1-.055,0A.423.423,0,0,1,12.7.14c.331-.049.691-.086,1.072-.11.2-.02.529-.031.963-.031a14.573,14.573,0,0,1,7.885,2.309.425.425,0,0,1,.129.583A.413.413,0,0,1,22.4,3.089Z" transform="translate(0 0)" fill="#1d8cef"/>
      <path id="Fill-3" d="M7.206,20.606a.4.4,0,0,1-.137-.023,10.5,10.5,0,0,1-5.835-5.05.424.424,0,0,1,.173-.571.413.413,0,0,1,.2-.05.417.417,0,0,1,.37.224,9.671,9.671,0,0,0,5.37,4.648.424.424,0,0,1,.258.538A.418.418,0,0,1,7.206,20.606Zm8.727-1.027a.416.416,0,0,1-.354-.2.427.427,0,0,1,.129-.583c.153-.1.28-.186.4-.273a.413.413,0,0,1,.24-.076.419.419,0,0,1,.343.178.427.427,0,0,1-.1.59c-.128.092-.274.191-.435.3A.415.415,0,0,1,15.934,19.579Zm2.273-1.993a.417.417,0,0,1-.271-.1.426.426,0,0,1-.047-.6A9.742,9.742,0,0,0,19.9,12.966a9.981,9.981,0,0,0,.3-2.434,9.8,9.8,0,0,0-.408-2.8.424.424,0,0,1,.28-.527.436.436,0,0,1,.121-.018.417.417,0,0,1,.4.3,10.667,10.667,0,0,1,.444,3.044,10.8,10.8,0,0,1-.331,2.643,10.567,10.567,0,0,1-2.183,4.261A.417.417,0,0,1,18.206,17.585ZM.459,11.883A.418.418,0,0,1,.042,11.5C.014,11.177,0,10.857,0,10.547A10.815,10.815,0,0,1,.331,7.9,10.538,10.538,0,0,1,4.037,2.169a.416.416,0,0,1,.587.073.426.426,0,0,1-.072.593,9.705,9.705,0,0,0-3.41,5.279,9.917,9.917,0,0,0-.305,2.434c0,.294.014.588.04.875a.423.423,0,0,1-.379.459Zm17.85-7.417a.413.413,0,0,1-.323-.154,9.654,9.654,0,0,0-6.18-3.47A.423.423,0,0,1,11.863,0a.279.279,0,0,1,.054,0,10.123,10.123,0,0,1,1.21.238,10.428,10.428,0,0,1,5.505,3.532.425.425,0,0,1-.058.595A.413.413,0,0,1,18.309,4.466ZM6.449,1.622a.42.42,0,0,1-.383-.252A.427.427,0,0,1,6.279.812c.127-.057.285-.123.484-.2A.382.382,0,0,1,6.912.582a.423.423,0,0,1,.151.817c-.191.075-.324.131-.446.186A.421.421,0,0,1,6.449,1.622Z" transform="translate(4.218 4.355)" fill="#005abc"/>
      <path id="Fill-24" d="M5.273,8.419H.833A.833.833,0,0,1,.15,8.06.85.85,0,0,1,0,7.514.517.517,0,0,1,.03,7.29L1.168,4.1A2.5,2.5,0,0,1,1.512.54,2.281,2.281,0,0,1,1.848.318L1.859.311,1.87.3A2.629,2.629,0,0,1,2.134.179L2.155.171,2.176.162A2.422,2.422,0,0,1,2.988,0l.026,0,.039,0,.038,0,.027,0a2.411,2.411,0,0,1,.811.158l.022.009.022.009A2.627,2.627,0,0,1,4.236.3l.011.007.011.007A2.381,2.381,0,0,1,4.595.54,2.5,2.5,0,0,1,4.937,4.1L6.076,7.29a.5.5,0,0,1,.028.224.846.846,0,0,1-.148.546A.83.83,0,0,1,5.273,8.419ZM3.046,1.056H3.031a1.577,1.577,0,0,0-.312.04,1.413,1.413,0,0,0-1.03,1.029,1.441,1.441,0,0,0,.444,1.441.529.529,0,0,1,.148.578L1.134,7.362H4.972L3.825,4.144a.53.53,0,0,1,.148-.578,1.439,1.439,0,0,0,.444-1.441A1.41,1.41,0,0,0,3.388,1.1a1.577,1.577,0,0,0-.312-.04h-.03Z" transform="translate(11.706 10.35)" fill="#005abc"/>
    </g>
  </g>
  <g id="Group_16" data-name="Group 16" transform="translate(60.696 12.658)">
    <g id="Group_14" data-name="Group 14" transform="translate(0 3.232)">
      <path id="Fill-5" d="M4.019,8.4A5.257,5.257,0,0,1,.78,7.612,2.131,2.131,0,0,1,0,5.83C0,3.987,1.131,3.2,3.782,3.2c.646,0,1.218.041,1.5.065l.042,0a.357.357,0,0,0,.282-.123.383.383,0,0,0,.071-.322C5.5,1.878,4.77,1.457,3.309,1.457a4.129,4.129,0,0,0-1.922.4.367.367,0,0,1-.476-.122,1,1,0,0,1-.186-.569C.725.637,1.178,0,3.341,0,6.112,0,7.517,1.135,7.517,3.374V7.823a.376.376,0,0,1-.32.371A25.26,25.26,0,0,1,4.019,8.4ZM3.845,4.468c-1.436,0-2.048.4-2.048,1.346,0,.889.665,1.268,2.222,1.268A10.149,10.149,0,0,0,5.414,7a.376.376,0,0,0,.322-.371V4.935a.37.37,0,0,0-.314-.369A10.5,10.5,0,0,0,3.845,4.468Z" transform="translate(0 0)" fill="#fff"/>
      <path id="Fill-7" d="M7.5,5.783c0-1.41-1.009-2.091-2.758-2.329L3.136,3.248c-.867-.111-1.34-.365-1.34-.919,0-.649.615-.966,1.828-.966a5.035,5.035,0,0,1,2.687.659.365.365,0,0,0,.465-.056.965.965,0,0,0,.283-.65C7.059.539,5.8,0,3.608,0,1.008,0,.016,1.156.016,2.5.016,4.056,1.2,4.721,2.883,4.9l1.229.143c1.135.127,1.512.412,1.512,1,0,.7-.772.95-1.859.95a7.036,7.036,0,0,1-2.91-.621A.371.371,0,0,0,.37,6.52L.047,7.1A.374.374,0,0,0,.2,7.616a8.31,8.31,0,0,0,3.66.781c2.347,0,3.64-1.03,3.64-2.614" transform="translate(8.691 0)" fill="#fff"/>
      <path id="Fill-9" d="M4.018,8.4C1.314,8.4,0,7.557,0,5.83,0,3.987,1.131,3.2,3.783,3.2c.645,0,1.217.041,1.5.065l.042,0a.357.357,0,0,0,.282-.123.384.384,0,0,0,.071-.323C5.5,1.878,4.77,1.457,3.309,1.457a4.129,4.129,0,0,0-1.922.4A.368.368,0,0,1,.91,1.741a1.011,1.011,0,0,1-.185-.569C.725.637,1.178,0,3.341,0c2.77,0,4.175,1.135,4.175,3.374V7.823a.371.371,0,0,1-.319.371A24.773,24.773,0,0,1,4.018,8.4ZM3.845,4.468c-1.436,0-2.048.4-2.048,1.346,0,.889.664,1.268,2.221,1.268A10.22,10.22,0,0,0,5.414,7a.371.371,0,0,0,.321-.371V4.935a.37.37,0,0,0-.314-.369A10.5,10.5,0,0,0,3.845,4.468Z" transform="translate(17.381 0)" fill="#fff"/>
      <path id="Fill-11" d="M1.8,7.8V3.834c0-1.442.677-2.2,2.048-2.2,1.34,0,2.048.761,2.048,2.2V7.8a.373.373,0,0,0,.372.374H7.318A.373.373,0,0,0,7.689,7.8V3.375C7.689,1.267,6.082,0,3.845,0,1.639,0,0,1.267,0,3.375V7.8a.373.373,0,0,0,.372.374H1.425A.373.373,0,0,0,1.8,7.8" transform="translate(26.393 0)" fill="#fff"/>
    </g>
    <g id="Group_15" data-name="Group 15" transform="translate(41.843)">
      <path id="Fill-13" d="M0,.842C0,.27.348,0,.964,0A2.3,2.3,0,0,1,1.8.175V11.341a.372.372,0,0,1-.371.373H.371A.372.372,0,0,1,0,11.341Z" fill="#fff"/>
      <path id="Fill-15" d="M4.347,8.424a4.4,4.4,0,0,1-3.1-1.218A4.136,4.136,0,0,1,0,4.212,4.187,4.187,0,0,1,4.347,0,4.187,4.187,0,0,1,8.694,4.212,4.136,4.136,0,0,1,7.445,7.206,4.4,4.4,0,0,1,4.347,8.424Zm0-6.835A2.464,2.464,0,0,0,1.881,4.212a2.47,2.47,0,1,0,4.932,0A2.464,2.464,0,0,0,4.347,1.589Z" transform="translate(3.541 3.555)" fill="#fff"/>
      <path id="Fill-17" d="M4.015,11.539a8.22,8.22,0,0,1-2.856-.478.371.371,0,0,1-.217-.473l.238-.658a.368.368,0,0,1,.472-.22,6.486,6.486,0,0,0,2.173.367c1.941,0,2.925-.957,2.925-2.845V7.041a3.589,3.589,0,0,1-2.7,1.193A3.875,3.875,0,0,1,0,4.18,4.117,4.117,0,0,1,4.331,0a4.155,4.155,0,0,1,3,1.1,4.639,4.639,0,0,1,1.2,3.433V6.818a4.775,4.775,0,0,1-1.282,3.624A4.552,4.552,0,0,1,4.015,11.539Zm.3-9.9A2.409,2.409,0,0,0,1.881,4.18,2.326,2.326,0,0,0,4.316,6.707,2.393,2.393,0,0,0,6.734,4.18,2.4,2.4,0,0,0,4.316,1.637Z" transform="translate(13.197 3.555)" fill="#fff"/>
      <path id="Fill-19" d="M1.635,10.616H.546a.358.358,0,0,1-.356-.358V3.48c0-.567.315-.842.964-.842a2.33,2.33,0,0,1,.838.175v7.446A.358.358,0,0,1,1.635,10.616ZM1.091,2.193A1.07,1.07,0,0,1,0,1.1,1.082,1.082,0,0,1,1.091,0,1.07,1.07,0,0,1,2.182,1.1,1.082,1.082,0,0,1,1.091,2.193Z" transform="translate(23.497 0.97)" fill="#fff"/>
      <path id="Fill-21" d="M0,3.385C0,1.272,1.644,0,3.857,0,6.1,0,7.714,1.272,7.714,3.385V7.838a.363.363,0,0,1-.361.363H6.273a.362.362,0,0,1-.361-.363V3.846c0-1.446-.711-2.209-2.055-2.209C2.482,1.637,1.8,2.4,1.8,3.846V7.838a.363.363,0,0,1-.361.363H.361A.362.362,0,0,1,0,7.838Z" transform="translate(27.411 3.678)" fill="#fff"/>
    </g>
  </g>
</svg>
